<?xml version="1.0" standalone="no"?>
<!DOCTYPE svg PUBLIC "-//W3C//DTD SVG 20010904//EN"
 "http://www.w3.org/TR/2001/REC-SVG-20010904/DTD/svg10.dtd">
<svg version="1.0" xmlns="http://www.w3.org/2000/svg"
 width="700.000000pt" height="700.000000pt" viewBox="0 0 700.000000 700.000000"
 preserveAspectRatio="xMidYMid meet">
<metadata>
Created by potrace 1.11, written by Peter Selinger 2001-2013
</metadata>
<g transform="translate(0.000000,700.000000) scale(0.100000,-0.100000)"
fill="#000000" stroke="none">
<path d="M2702 5627 l-792 -792 795 -795 795 -795 795 795 795 795 -792 792
c-436 436 -795 793 -798 793 -3 0 -362 -357 -798 -793z"/>
<path d="M905 3830 l-790 -790 795 -795 795 -795 795 795 795 795 -790 790
c-435 434 -795 790 -800 790 -6 0 -366 -356 -800 -790z m2173 -795 c-1 -5
-310 -317 -688 -693 l-686 -683 -690 690 -690 690 691 691 690 690 687 -687
c379 -379 687 -692 686 -698z"/>
<path d="M4495 3830 l-789 -790 794 -795 795 -795 795 795 794 794 -789 790
c-435 435 -794 791 -800 791 -5 0 -365 -356 -800 -790z m1493 -102 l688 -688
-691 -690 -690 -690 -690 690 -690 690 690 690 c379 379 690 688 692 687 1 -1
312 -311 691 -689z"/>
<path d="M2033 1550 c-109 -110 -199 -204 -201 -208 -1 -4 88 -97 198 -207
l200 -200 55 55 c30 30 55 57 55 61 0 4 -43 49 -95 100 -52 52 -95 98 -95 102
0 5 195 7 433 5 l432 -3 56 -28 c234 -114 254 -434 36 -573 -54 -35 -139 -53
-242 -51 l-90 2 -1 70 c-1 39 -2 75 -3 82 -1 12 -124 14 -136 1 -9 -9 -9 -307
-1 -316 8 -8 347 -5 389 3 151 31 284 133 351 270 41 84 56 157 50 248 -14
204 -151 375 -349 437 -67 21 -88 21 -497 22 -236 0 -428 3 -428 6 0 2 42 47
93 99 50 52 93 98 95 103 2 4 -22 34 -52 65 l-55 56 -198 -201z"/>
<path d="M4709 1690 l-56 -59 99 -98 c54 -54 98 -101 98 -104 0 -4 -188 -7
-418 -7 -353 0 -427 -2 -481 -16 -312 -80 -465 -416 -321 -701 57 -111 146
-189 282 -243 46 -19 184 -29 301 -23 15 1 17 12 17 84 l0 82 -123 0 c-102 1
-130 4 -169 22 -68 31 -136 99 -169 168 -25 53 -28 69 -25 145 3 105 31 166
106 233 89 81 87 80 573 83 235 1 427 -1 427 -5 0 -4 -43 -49 -95 -100 -52
-52 -95 -97 -95 -100 0 -4 25 -31 55 -61 l55 -54 200 199 c110 110 200 202
200 205 0 6 -366 378 -390 396 -12 10 -26 1 -71 -46z"/>
</g>
</svg>
